<svg xmlns="http://www.w3.org/2000/svg" width="98.784" height="112.316" viewBox="0 0 98.784 112.316">
  <g id="about_hotel" transform="translate(0 0)">
    <g id="Layer_6" data-name="Layer 6" transform="translate(0)">
      <g id="about_copy" data-name="about copy">
        <path id="Path_38" data-name="Path 38" d="M92.614,10H6.171A6.171,6.171,0,0,0,0,16.171v86.443a6.171,6.171,0,0,0,6.171,6.171H92.614a6.171,6.171,0,0,0,6.171-6.171V16.171A6.171,6.171,0,0,0,92.614,10ZM37.89,102.018v-23h23v23Zm54.128,0H67.66V72.248H31.124v29.771H6.766V16.766H92.018Z" transform="translate(0 3.532)" fill="#fff"/>
        <path id="Path_39" data-name="Path 39" d="M20.383,6.766H66.392a3.383,3.383,0,1,0,0-6.766H20.383a3.383,3.383,0,0,0,0,6.766Z" transform="translate(6.005)" fill="#fff"/>
        <path id="Path_40" data-name="Path 40" d="M15.383,29.766H74.924a3.383,3.383,0,1,0,0-6.766H15.383a3.383,3.383,0,1,0,0,6.766Z" transform="translate(4.239 8.124)" fill="#fff"/>
        <path id="Path_41" data-name="Path 41" d="M15.383,40.766H74.924a3.383,3.383,0,1,0,0-6.766H15.383a3.383,3.383,0,0,0,0,6.766Z" transform="translate(4.239 12.009)" fill="#fff"/>
        <path id="Path_42" data-name="Path 42" d="M15.383,51.766H74.924a3.383,3.383,0,1,0,0-6.766H15.383a3.383,3.383,0,1,0,0,6.766Z" transform="translate(4.239 15.894)" fill="#fff"/>
      </g>
    </g>
  </g>
</svg>
