<svg xmlns="http://www.w3.org/2000/svg" viewBox="0 0 63 78.15"><defs><style>.cls-1{fill:#fff;}</style></defs><title>bill</title><g id="Layer_2" data-name="Layer 2"><g id="Layer_22_copy" data-name="Layer 22 copy"><path class="cls-1" d="M13.81,0,0,12.53V78.15H63V0ZM12.76,6.36v4.8H7.46ZM59,74.15H4v-59H16.76V4H59Z"/><path class="cls-1" d="M15.55,24.42a1.5,1.5,0,1,0,0,3H49a1.5,1.5,0,1,0,0-3Z"/><path class="cls-1" d="M49,34.78H15.55a1.5,1.5,0,1,0,0,3H49a1.5,1.5,0,0,0,0-3Z"/><path class="cls-1" d="M49,45.15H15.55a1.5,1.5,0,0,0,0,3H49a1.5,1.5,0,0,0,0-3Z"/><path class="cls-1" d="M49,55.51H15.55a1.5,1.5,0,0,0,0,3H49a1.5,1.5,0,0,0,0-3Z"/></g></g></svg>