<svg xmlns="http://www.w3.org/2000/svg" width="600" height="600" viewBox="0 0 600 600"><g transform="translate(-51)"><g transform="translate(51)" fill="#fff" stroke="#707070" stroke-width="1"><rect width="600" height="600" stroke="none"/><rect x="0.5" y="0.5" width="599" height="599" fill="none"/></g><path d="M154,270h0a131.01,131.01,0,0,1-25.606-2.521,129.254,129.254,0,0,1-45.619-18.71A130.449,130.449,0,0,1,35.64,193.843,129.356,129.356,0,0,1,24.095,145H39.107A114.87,114.87,0,0,0,154,255v15Z" transform="translate(65 163)" fill="#eaeaea"/><path d="M100,220h0a100.738,100.738,0,0,1-20.153-2.032,99.451,99.451,0,0,1-35.757-15.047,100.292,100.292,0,0,1-36.23-44,99.5,99.5,0,0,1-5.827-18.771,100.975,100.975,0,0,1,0-40.307A99.451,99.451,0,0,1,17.078,64.089a100.292,100.292,0,0,1,44-36.23,99.5,99.5,0,0,1,18.771-5.827A100.738,100.738,0,0,1,100,20V35h-.016a85.55,85.55,0,0,0-17.115,1.726,84.535,84.535,0,0,0-30.394,12.79,85.247,85.247,0,0,0-30.8,37.4,84.57,84.57,0,0,0-4.953,15.955,85.831,85.831,0,0,0,0,34.261,84.536,84.536,0,0,0,12.79,30.394,85.247,85.247,0,0,0,37.4,30.8,84.572,84.572,0,0,0,15.955,4.953A85.629,85.629,0,0,0,100,205v15Z" transform="translate(119 180)" fill="#eaeaea"/><path d="M70,140h-.008a69.665,69.665,0,0,1-39.13-11.954A70.2,70.2,0,0,1,5.5,97.247a69.908,69.908,0,0,1,6.454-66.385A70.2,70.2,0,0,1,42.753,5.5a69.908,69.908,0,0,1,66.385,6.454,70.2,70.2,0,0,1,25.362,30.8A69.561,69.561,0,0,1,140,70H70Z" transform="translate(149 230)" fill="#eaeaea"/><text transform="translate(240 308)" fill="#eaeaea" font-size="100" font-family="Poppins-Regular, Poppins"><tspan x="0" y="105">CAEIGO</tspan></text></g></svg>