<?xml version="1.0" encoding="utf-8"?>
<!-- Generator: Adobe Illustrator 23.0.1, SVG Export Plug-In . SVG Version: 6.00 Build 0)  -->
<svg version="1.1" id="Layer_1" xmlns="http://www.w3.org/2000/svg" xmlns:xlink="http://www.w3.org/1999/xlink" x="0px" y="0px"
	 viewBox="0 0 345.5 49.8" style="enable-background:new 0 0 345.5 49.8;" xml:space="preserve">
<style type="text/css">
	.st0{fill:#FFFFFF;}
	.st1{enable-background:new    ;}
</style>
<g id="Group_53" transform="translate(-115.545 -55)">
	<g id="Cantiz_logo_1_" transform="translate(114.265 53.3)">
		<path id="Path_1" class="st0" d="M33,7.2l9.5-4.6c0.3-0.2,0.3-0.8-0.2-0.8h-26c-0.4,0-0.7,0.1-1,0.3L1.8,12.6
			c-0.1,0.1-0.1,0.3,0.1,0.4c0,0,0.1,0,0.1,0.1h29c0.5,0,1-0.5,1-1V8.7C32,8,32.4,7.4,33,7.2z"/>
		<path id="Path_2" class="st0" d="M34.8,19.6l11.1-6c0.3-0.2,0.5-0.5,0.5-0.8v-9c0-0.6-0.4-1.1-1-1.1c-0.2,0-0.3,0-0.5,0.1
			L33.8,8.3c-0.4,0.2-0.7,0.6-0.7,1v9.5c0.2,0.7,0.9,1.1,1.5,0.9C34.7,19.6,34.8,19.6,34.8,19.6z"/>
		<path id="Rectangle_3" class="st0" d="M2.3,14.3h11.4c0.5,0,1,0.5,1,1v16.3c0,0.5-0.5,1-1,1H2.3c-0.5,0-1-0.5-1-1V15.5
			c-0.1-0.5,0.2-1,0.7-1.1C2.1,14.3,2.2,14.3,2.3,14.3z"/>
		<path id="Path_3" class="st0" d="M2.3,34.9l12.4,9.9c0.5,0.4,1.1,0.6,1.7,0.7h26.5c0.2,0,0.5-0.1,0.5-0.4c0,0,0-0.1,0-0.1v-4.8
			c0-0.7,0.4-1.2,1-1.5l8.3-3.8c0.3-0.1,0.4-0.4,0.2-0.7c-0.1-0.2-0.2-0.3-0.4-0.3H2.6C2.1,34,2,34.7,2.3,34.9z"/>
		<path id="Path_4" class="st0" d="M44.8,41v9.5c0,0.6,0.4,1.1,1,1.1c0.2,0,0.3,0,0.5-0.1l11.1-5.8c0.4-0.2,0.6-0.6,0.5-1v-9.1
			c0-0.6-0.4-1.1-1-1.1c-0.2,0-0.3,0-0.5,0.1l-11.1,5.3C45,40.2,44.8,40.6,44.8,41z"/>
	</g>
	<g id="Symbol_2_1">
		<g class="st1">
			<path class="st0" d="M207.2,68c5.3,0,9.6,2.8,11.2,7.7h-5.5c-1.1-2.3-3.2-3.4-5.7-3.4c-4.1,0-7.1,3-7.1,7.9c0,4.8,3,7.9,7.1,7.9
				c2.5,0,4.6-1.1,5.7-3.4h5.5c-1.6,4.9-5.9,7.7-11.2,7.7c-6.8,0-12-5-12-12.1C195.2,73,200.4,68,207.2,68z"/>
			<path class="st0" d="M229.8,72.9c3,0,5.1,1.4,6.2,3v-2.7h4.8V92h-4.8v-2.8c-1.1,1.6-3.3,3.1-6.3,3.1c-4.8,0-8.6-3.9-8.6-9.8
				C221.2,76.6,225,72.9,229.8,72.9z M231.1,77c-2.5,0-5,1.9-5,5.5c0,3.6,2.4,5.6,5,5.6c2.6,0,5-2,5-5.5S233.7,77,231.1,77z"/>
			<path class="st0" d="M258.7,81.6c0-3-1.7-4.7-4.2-4.7c-2.6,0-4.2,1.6-4.2,4.7V92h-4.8V73.2h4.8v2.3c1.2-1.6,3.3-2.6,5.7-2.6
				c4.4,0,7.5,2.9,7.5,8.1v11h-4.8V81.6z"/>
			<path class="st0" d="M268.7,77.1h-2.2v-3.9h2.2v-4.7h4.8v4.7h4.2v3.9h-4.2v9.1c0,1.3,0.5,1.8,2,1.8h2.2v4h-3c-3.6,0-6-1.5-6-5.8
				V77.1z"/>
			<path class="st0" d="M280.7,68.1c0-1.6,1.2-2.8,2.9-2.8c1.7,0,2.9,1.2,2.9,2.8c0,1.6-1.3,2.8-2.9,2.8
				C281.9,70.9,280.7,69.7,280.7,68.1z M281.2,73.2h4.8V92h-4.8V73.2z"/>
			<path class="st0" d="M303.3,77L295,88.1h8.4V92h-13.8v-3.8l8.2-11.1h-8.2v-3.9h13.7V77z"/>
			<path class="st0" d="M326,68c5.3,0,9.6,2.8,11.2,7.7h-5.5c-1.1-2.3-3.2-3.4-5.7-3.4c-4.1,0-7.1,3-7.1,7.9c0,4.8,3,7.9,7.1,7.9
				c2.5,0,4.6-1.1,5.7-3.4h5.5c-1.6,4.9-5.9,7.7-11.2,7.7c-6.8,0-12-5-12-12.1C314,73,319.2,68,326,68z"/>
			<path class="st0" d="M349.6,92.3c-5.4,0-9.6-3.8-9.6-9.7c0-5.9,4.2-9.7,9.7-9.7s9.7,3.8,9.7,9.7
				C359.4,88.5,355.1,92.3,349.6,92.3z M349.6,88.2c2.5,0,4.9-1.8,4.9-5.6c0-3.8-2.3-5.6-4.9-5.6s-4.8,1.8-4.8,5.6
				C344.9,86.3,347.1,88.2,349.6,88.2z"/>
			<path class="st0" d="M376.1,81.6c0-3-1.7-4.7-4.2-4.7c-2.6,0-4.3,1.6-4.3,4.7V92h-4.8V73.2h4.8v2.3c1.2-1.6,3.3-2.6,5.7-2.6
				c4.4,0,7.5,2.9,7.5,8.1v11h-4.8V81.6z"/>
			<path class="st0" d="M398.6,81.6c0-3-1.7-4.7-4.2-4.7c-2.6,0-4.2,1.6-4.2,4.7V92h-4.8V73.2h4.8v2.3c1.2-1.6,3.3-2.6,5.7-2.6
				c4.4,0,7.5,2.9,7.5,8.1v11h-4.8V81.6z"/>
			<path class="st0" d="M416.1,92.3c-5.5,0-9.5-3.8-9.5-9.7c0-5.9,3.9-9.7,9.5-9.7c5.4,0,9.3,3.7,9.3,9.3c0,0.6,0,1.2-0.1,1.8h-13.8
				c0.2,2.8,2.1,4.4,4.5,4.4c2,0,3.2-1,3.8-2.3h5.1C423.9,89.6,420.8,92.3,416.1,92.3z M411.5,80.8h8.9c-0.1-2.5-2-4-4.5-4
				C413.7,76.8,411.9,78.2,411.5,80.8z"/>
			<path class="st0" d="M437,72.9c4.7,0,7.9,2.4,8.9,6.7h-5.1c-0.5-1.6-1.8-2.6-3.8-2.6c-2.7,0-4.4,2-4.4,5.7s1.8,5.6,4.4,5.6
				c2,0,3.2-0.9,3.8-2.6h5.1c-1,4-4.2,6.7-8.9,6.7c-5.4,0-9.3-3.8-9.3-9.7S431.5,72.9,437,72.9z"/>
			<path class="st0" d="M450.1,77.1h-2.2v-3.9h2.2v-4.7h4.8v4.7h4.2v3.9h-4.2v9.1c0,1.3,0.5,1.8,2,1.8h2.2v4h-3c-3.6,0-6-1.5-6-5.8
				V77.1z"/>
		</g>
	</g>
</g>
</svg>
