<svg xmlns="http://www.w3.org/2000/svg" viewBox="0 0 93.5 80.61"><defs><style>.cls-1{fill:#fff;}</style></defs><title>clean</title><g id="Layer_2" data-name="Layer 2"><g id="Layer_19_copy" data-name="Layer 19 copy"><path class="cls-1" d="M87.66,22.25H80.28V20.86a18,18,0,1,0-36.05,0V26H35.29l8.21,50.9a4,4,0,0,0,3.91,3.33H77.93a3.94,3.94,0,0,0,3.9-3.33l3.4-21.05h3.34a4.93,4.93,0,0,0,4.93-4.93V28.09A5.85,5.85,0,0,0,87.66,22.25ZM47.23,20.86a15,15,0,1,1,30.05,0v1.39H68.44l-.08-.1-.13.1h0v0L63.4,26H47.23ZM78.87,76.39a1,1,0,0,1-.94.81H47.41a1,1,0,0,1-.95-.81L38.81,29H68.19V50.89a4.93,4.93,0,0,0,4.93,4.93h9.07ZM90.5,50.89a1.93,1.93,0,0,1-1.93,1.93H73.12a1.93,1.93,0,0,1-1.93-1.93V25.25H87.66a2.84,2.84,0,0,1,2.84,2.84Z"/><path class="cls-1" d="M29.59,69.35H21.16l.27-67.84A1.51,1.51,0,0,0,19.93,0h0a1.5,1.5,0,0,0-1.5,1.49l-.27,67.86H9.76A9.77,9.77,0,0,0,0,79.11v1.5H39.36v-1.5A9.78,9.78,0,0,0,29.59,69.35ZM3.17,77.61a6.77,6.77,0,0,1,6.59-5.26H29.59a6.78,6.78,0,0,1,6.6,5.26Z"/></g></g></svg>