<svg xmlns="http://www.w3.org/2000/svg" viewBox="0 0 137 110"><defs><style>.cls-1{fill:#fff;}</style></defs><title>gym</title><g id="Layer_2" data-name="Layer 2"><g id="Layer_4_copy_2" data-name="Layer 4 copy 2"><path class="cls-1" d="M123.7,33.67H105.3A5.3,5.3,0,0,0,100,39V52.67H92.5V44.79a7.49,7.49,0,0,0-13-5.08,7.46,7.46,0,0,0-11,0,7.46,7.46,0,0,0-11,0,7.49,7.49,0,0,0-13,5.08v7.88H37V39a5.3,5.3,0,0,0-5.3-5.29H13.3A5.3,5.3,0,0,0,8,39V71.37a5.31,5.31,0,0,0,5.3,5.3H31.7a5.31,5.31,0,0,0,5.3-5.3V57.67h7.5v7.12a7.49,7.49,0,0,0,13,5.08,7.42,7.42,0,0,0,7.15,2.23,7.34,7.34,0,0,0,3,14A6.84,6.84,0,0,0,69.09,86l16.23-3.16a7.34,7.34,0,0,0,4.14-12,7.49,7.49,0,0,0,3-6V57.67H100v13.7a5.31,5.31,0,0,0,5.3,5.3h18.4a5.31,5.31,0,0,0,5.3-5.3V39A5.3,5.3,0,0,0,123.7,33.67ZM32,71.37a.3.3,0,0,1-.3.3H13.3a.3.3,0,0,1-.3-.3V39a.29.29,0,0,1,.3-.29H31.7A.29.29,0,0,1,32,39V71.37ZM85,41.29a3.5,3.5,0,0,1,3.5,3.5v20a3.5,3.5,0,1,1-7,0v-20A3.5,3.5,0,0,1,85,41.29Zm-11,0a3.5,3.5,0,0,1,3.5,3.5v20a3.5,3.5,0,1,1-7,0v-20A3.5,3.5,0,0,1,74,41.29Zm-22,27a3.5,3.5,0,0,1-3.5-3.5v-20a3.5,3.5,0,1,1,7,0v20A3.5,3.5,0,0,1,52,68.29Zm7.5-3.5v-20a3.5,3.5,0,1,1,7,0v20a3.5,3.5,0,0,1-7,0Zm9,5.08a7.27,7.27,0,0,0,1.18,1l-3.4.67-.21,0A7.58,7.58,0,0,0,68.5,69.87Zm18.19,7.61a3.3,3.3,0,0,1-2.14,1.42L68.33,82.07A3.35,3.35,0,0,1,67,75.5l16.23-3.17a3.66,3.66,0,0,1,.65-.06A3.35,3.35,0,0,1,87.2,75,3.31,3.31,0,0,1,86.69,77.48ZM124,71.37a.3.3,0,0,1-.3.3H105.3a.3.3,0,0,1-.3-.3V39a.29.29,0,0,1,.3-.29h18.4a.29.29,0,0,1,.3.29Z"/><path class="cls-1" d="M134.5,47.17a2.49,2.49,0,0,0-2.5,2.5v11a2.5,2.5,0,1,0,5,0v-11A2.49,2.49,0,0,0,134.5,47.17Z"/><path class="cls-1" d="M2.5,47.17A2.49,2.49,0,0,0,0,49.67v11a2.5,2.5,0,0,0,5,0v-11A2.49,2.49,0,0,0,2.5,47.17Z"/><path class="cls-1" d="M114.59,83a2,2,0,0,0-2.78.53A51,51,0,0,1,26.88,83a2,2,0,0,0-3.34,2.2,55,55,0,0,0,91.59.56A2,2,0,0,0,114.59,83Z"/><path class="cls-1" d="M25.2,25.86a2,2,0,0,0,1.16.37A2,2,0,0,0,28,25.39a51,51,0,0,1,82.56-.7,2,2,0,1,0,3.21-2.38,55,55,0,0,0-89,.76A2,2,0,0,0,25.2,25.86Z"/></g></g></svg>