<svg xmlns="http://www.w3.org/2000/svg" viewBox="0 0 68 79.5"><defs><style>.cls-1{fill:#fff;}</style></defs><title>laundry</title><g id="Layer_2" data-name="Layer 2"><g id="Layer_21" data-name="Layer 21"><path class="cls-1" d="M63.4,0H4.59A4.6,4.6,0,0,0,0,4.59V74.91A4.6,4.6,0,0,0,4.59,79.5H63.4A4.6,4.6,0,0,0,68,74.91V4.59A4.6,4.6,0,0,0,63.4,0ZM65,74.91a1.6,1.6,0,0,1-1.6,1.59H4.59A1.6,1.6,0,0,1,3,74.91V18H65ZM3,15V4.59A1.6,1.6,0,0,1,4.59,3H63.4A1.6,1.6,0,0,1,65,4.59V15Z"/><path class="cls-1" d="M34,64A18,18,0,0,0,52,46V44.5h-.08a18,18,0,0,0-35.84,0H16V46A18,18,0,0,0,34,64Zm0-33A15,15,0,0,1,48.92,44.5H19.08A15,15,0,0,1,34,31Z"/></g></g></svg>