<svg xmlns="http://www.w3.org/2000/svg" width="88.253" height="118.191" viewBox="0 0 88.253 118.191">
  <g id="Layer_6" data-name="Layer 6" transform="translate(0 0)">
    <g id="Layer_5_copy" data-name="Layer 5 copy">
      <path id="Path_43" data-name="Path 43" d="M64.927,67.643c5.431-10.658,9.749-23.082,9.749-35.4a32.246,32.246,0,0,0-64.493,0c0,11.948,4.589,24.548,10.156,35.451L0,62.076v46.543l29.191,8.146,28.7-4.616,30.359,6.042V71.729ZM42.429,6.789A25.485,25.485,0,0,1,67.887,32.246c0,23.57-18.465,48.784-25.4,57.432-6.9-8.934-25.512-35.111-25.512-57.432A25.485,25.485,0,0,1,42.429,6.789ZM81.465,109.977,58.03,105.252l-28.513,4.521L6.789,103.419V70.983L24.9,76.034h0A172,172,0,0,0,39.836,97.282l2.525,2.919,2.593-2.892a150.194,150.194,0,0,0,16.564-23.38l19.945,3.462Z" fill="#fff"/>
      <path id="Path_44" data-name="Path 44" d="M42.625,45.578a4.005,4.005,0,0,0,4.318-.312,4.073,4.073,0,0,0,1.643-4.073L47.35,34.01l5.227-5.092A4.073,4.073,0,0,0,50.3,21.913l-7.223-1.059-3.231-6.531a4.073,4.073,0,0,0-7.359,0l-3.231,6.531-7.223,1.059a4.073,4.073,0,0,0-2.281,7.006l5.227,5.092-1.236,7.182a4.073,4.073,0,0,0,5.974,4.331l6.449-3.394Zm-8.377-8.513-4.7,2.471.9-5.241a4.073,4.073,0,0,0-1.181-3.639l-3.8-3.72,5.254-.76a4.073,4.073,0,0,0,3.1-2.254l2.349-4.752,2.349,4.752a4.073,4.073,0,0,0,3.1,2.254l5.254.76-3.8,3.707a4.073,4.073,0,0,0-1.181,3.639l.9,5.241-4.7-2.471a4.073,4.073,0,0,0-3.829.014Z" transform="translate(6.606 4.292)" fill="#fff"/>
    </g>
  </g>
</svg>
