<svg xmlns="http://www.w3.org/2000/svg" viewBox="0 0 65 87.05"><title>nearby_attractions</title><g id="Layer_2" data-name="Layer 2"><g id="Layer_6" data-name="Layer 6"><g id="Layer_5_copy" data-name="Layer 5 copy"><path d="M47.82,49.82c4-7.85,7.18-17,7.18-26.07a23.75,23.75,0,0,0-47.5,0c0,8.8,3.38,18.08,7.48,26.11L0,45.72V80l21.5,6L42.64,82.6,65,87.05V52.83ZM31.25,5A18.77,18.77,0,0,1,50,23.75c0,17.36-13.6,35.93-18.71,42.3C26.21,59.47,12.5,40.19,12.5,23.75A18.77,18.77,0,0,1,31.25,5ZM60,81,42.74,77.52l-21,3.33L5,76.17V52.28L18.34,56h0a126.68,126.68,0,0,0,11,15.65L31.2,73.8l1.91-2.13a110.62,110.62,0,0,0,12.2-17.22L60,57Z"/><path d="M36.26,36.73a2.95,2.95,0,0,0,3.18-.23,3,3,0,0,0,1.21-3l-.91-5.29,3.85-3.75a3,3,0,0,0-1.68-5.16l-5.32-.78-2.38-4.81a3,3,0,0,0-5.42,0l-2.38,4.81-5.32.78a3,3,0,0,0-1.68,5.16l3.85,3.75-.91,5.29a3,3,0,0,0,4.4,3.19l4.75-2.5Zm-6.17-6.27-3.46,1.82.66-3.86a3,3,0,0,0-.87-2.68L23.62,23l3.87-.56a3,3,0,0,0,2.28-1.66l1.73-3.5,1.73,3.5a3,3,0,0,0,2.28,1.66l3.87.56-2.8,2.73a3,3,0,0,0-.87,2.68l.66,3.86-3.46-1.82A3,3,0,0,0,30.09,30.46Z"/></g></g></g></svg>