<svg xmlns="http://www.w3.org/2000/svg" width="143.528" height="114.517" viewBox="0 0 143.528 114.517">
  <g id="ott" transform="translate(0.5 0.5)">
    <g id="Layer_6" data-name="Layer 6">
      <g id="OTT_copy" data-name="OTT copy">
        <path id="Path_45" data-name="Path 45" d="M135.731,0H6.8A6.8,6.8,0,0,0,0,6.8V92.581a6.8,6.8,0,0,0,6.8,6.8H135.731a6.8,6.8,0,0,0,6.8-6.8V6.8a6.8,6.8,0,0,0-6.8-6.8ZM6.8,92.554V6.8H135.7V92.526Z" fill="#fff" stroke="#707070" stroke-width="1"/>
        <path id="Path_46" data-name="Path 46" d="M83.7,41.818,41.438,16.3a3.535,3.535,0,0,0-1.862-.53A3.616,3.616,0,0,0,36,19.386V70.462a3.6,3.6,0,0,0,5.438,3.1L83.7,48a3.616,3.616,0,0,0,0-6.186ZM42.8,64.779V25.028L75.683,44.9Z" transform="translate(12.941 5.669)" fill="#fff" stroke="#707070" stroke-width="1"/>
        <path id="Path_47" data-name="Path 47" d="M79.695,78.5H37.959a3.4,3.4,0,1,0,0,6.8H79.695a3.4,3.4,0,1,0,0-6.8Z" transform="translate(12.424 28.219)" fill="#fff" stroke="#707070" stroke-width="1"/>
      </g>
    </g>
  </g>
</svg>
