<svg xmlns="http://www.w3.org/2000/svg" viewBox="0 0 96.5 57"><defs><style>.cls-1{fill:#fff;}</style></defs><title>preview</title><g id="Layer_2" data-name="Layer 2"><g id="OTT"><path class="cls-1" d="M48.25,13.5a15,15,0,1,0,15,15A15,15,0,0,0,48.25,13.5Zm0,26a11,11,0,1,1,11-11A11,11,0,0,1,48.25,39.5Z"/><path class="cls-1" d="M96.08,27.27C95.21,26.16,74.47,0,48.25,0S1.29,26.16.42,27.27a2,2,0,0,0,0,2.46C1.29,30.84,22,57,48.25,57s47-26.16,47.83-27.27A2,2,0,0,0,96.08,27.27ZM48.25,53C27.1,53,9,33.63,4.6,28.5,9,23.37,27.07,4,48.25,4S87.48,23.37,91.9,28.5C87.49,33.63,69.43,53,48.25,53Z"/></g></g></svg>