<svg xmlns="http://www.w3.org/2000/svg" width="140.363" height="99.134" viewBox="0 0 140.363 99.134">
  <g id="room_service" transform="translate(0 0)">
    <g id="Layer_6" data-name="Layer 6" transform="translate(0 0)">
      <g id="Layer_3_copy" data-name="Layer 3 copy">
        <path id="Path_48" data-name="Path 48" d="M87.139,68H17.894a3.394,3.394,0,0,0,0,6.789H87.139a3.394,3.394,0,0,0,0-6.789Z" transform="translate(5.187 24.346)" fill="#fff"/>
        <path id="Path_49" data-name="Path 49" d="M124.749,9.509a15.628,15.628,0,0,0-15.614,15.614V29.2a3.394,3.394,0,0,0,6.789,0V25.123a8.838,8.838,0,0,1,17.651-.964q0,.2,0,.407v4.467a7.644,7.644,0,0,1-7.739,7.631h-7.712a9,9,0,0,0-8.988,9V53.69a56.346,56.346,0,0,0-46.6-33.115,10.862,10.862,0,1,0-9.667,0A56.278,56.278,0,0,0,2.281,66.6a3.394,3.394,0,0,0,3.34,4.073H109.135v8.146H3.394a3.394,3.394,0,0,0,0,6.789H110.968a7.671,7.671,0,0,0,5.8,2.648h15.9a7.712,7.712,0,0,0,7.7-7.685V25.123A15.628,15.628,0,0,0,124.749,9.509ZM57.7,6.794a4.073,4.073,0,1,1-4.073,4.073A4.073,4.073,0,0,1,57.7,6.794ZM9.857,63.819a49.558,49.558,0,0,1,95.694,0ZM133.575,80.573a.91.91,0,0,1-.91.9h-15.9a.9.9,0,0,1-.9-.9V45.666a2.2,2.2,0,0,1,2.254-2.213h7.712a14.392,14.392,0,0,0,7.739-2.254Z" transform="translate(0 0.014)" fill="#fff"/>
      </g>
    </g>
  </g>
</svg>
