<svg xmlns="http://www.w3.org/2000/svg" viewBox="0 0 140 98.71"><defs><style>.cls-1{fill:#fff;}</style></defs><title>spa</title><g id="Layer_2" data-name="Layer 2"><g id="spa_stroke_copy" data-name="spa stroke copy"><path class="cls-1" d="M94.29,39.41a2.37,2.37,0,0,0-1.25.17,21,21,0,0,0-13.47-7,18,18,0,1,0-20.9.18,21,21,0,0,0-13.22,8,2.37,2.37,0,0,0-1.13-.11C17.81,44.35,0,56.36,0,70.49,0,82.77,13.43,93.56,35.05,98.65a2.93,2.93,0,0,0,.58.06,2.5,2.5,0,0,0,.57-4.93C17.25,89.32,5,80.18,5,70.49,5,59.54,20.31,49.62,42.53,45.93a20.94,20.94,0,0,0-1.4,7.49v.52a2.55,2.55,0,0,0-1,0C27.5,57.13,20.25,62.73,20.25,69.34c0,2.79,1.35,6.91,7.81,10.71a2.5,2.5,0,0,0,2.53-4.32c-3.44-2-5.34-4.29-5.34-6.39,0-3.91,6.23-8,15.88-10.45V75.42a5.7,5.7,0,0,0,5.34,5.69A96.88,96.88,0,0,0,69.71,84a96.72,96.72,0,0,0,23.22-2.85,5.7,5.7,0,0,0,5.35-5.69V57.93c9.88,2.41,16.47,6.62,16.47,10.6,0,2.24-2.09,4.18-3.84,5.42A2.5,2.5,0,0,0,113.8,78c4.92-3.49,6-7.1,6-9.51,0-6.77-7.9-12.62-21.13-15.66a2.2,2.2,0,0,0-.37,0,20.78,20.78,0,0,0-1.86-8.06C118.92,48.28,135,58.46,135,69.49c0,9.38-11.71,18.39-29.83,23a2.5,2.5,0,0,0,.61,4.93,2.64,2.64,0,0,0,.62-.08c20.72-5.21,33.6-15.87,33.6-27.8C140,55,121.63,42.93,94.29,39.41ZM56,18A13,13,0,1,1,69,31,13,13,0,0,1,56,18ZM93.28,75.42a.69.69,0,0,1-.69.7h-.31l-.3.07a91,91,0,0,1-44.55,0l-.3-.07h-.31a.69.69,0,0,1-.69-.7v-22a16,16,0,0,1,16-16H77.28a16,16,0,0,1,16,16Z"/></g></g></svg>